<svg id="visual" viewBox="0 0 960 540" width="960" height="540" xmlns="http://www.w3.org/2000/svg" xmlns:xlink="http://www.w3.org/1999/xlink" version="1.1"><rect x="0" y="0" width="960" height="540" fill="#fff"></rect><defs><linearGradient id="grad1_0" x1="43.8%" y1="0%" x2="100%" y2="100%"><stop offset="14.444444444444446%" stop-color="#08162a" stop-opacity="1"></stop><stop offset="85.55555555555554%" stop-color="#08162a" stop-opacity="1"></stop></linearGradient></defs><defs><linearGradient id="grad1_1" x1="43.8%" y1="0%" x2="100%" y2="100%"><stop offset="14.444444444444446%" stop-color="#08162a" stop-opacity="1"></stop><stop offset="85.55555555555554%" stop-color="#7b808d" stop-opacity="1"></stop></linearGradient></defs><defs><linearGradient id="grad1_2" x1="43.8%" y1="0%" x2="100%" y2="100%"><stop offset="14.444444444444446%" stop-color="#ffffff" stop-opacity="1"></stop><stop offset="85.55555555555554%" stop-color="#7b808d" stop-opacity="1"></stop></linearGradient></defs><defs><linearGradient id="grad2_0" x1="0%" y1="0%" x2="56.3%" y2="100%"><stop offset="14.444444444444446%" stop-color="#08162a" stop-opacity="1"></stop><stop offset="85.55555555555554%" stop-color="#08162a" stop-opacity="1"></stop></linearGradient></defs><defs><linearGradient id="grad2_1" x1="0%" y1="0%" x2="56.3%" y2="100%"><stop offset="14.444444444444446%" stop-color="#7b808d" stop-opacity="1"></stop><stop offset="85.55555555555554%" stop-color="#08162a" stop-opacity="1"></stop></linearGradient></defs><defs><linearGradient id="grad2_2" x1="0%" y1="0%" x2="56.3%" y2="100%"><stop offset="14.444444444444446%" stop-color="#7b808d" stop-opacity="1"></stop><stop offset="85.55555555555554%" stop-color="#ffffff" stop-opacity="1"></stop></linearGradient></defs><g transform="translate(960, 0)"><path d="M0 189C-28.8 177 -57.6 164.9 -87 150.7C-116.4 136.4 -146.6 120 -163.7 94.5C-180.8 69 -184.9 34.5 -189 0L0 0Z" fill="#bbbdc5"></path><path d="M0 126C-19.2 118 -38.4 110 -58 100.5C-77.6 91 -97.7 80 -109.1 63C-120.5 46 -123.3 23 -126 0L0 0Z" fill="#404759"></path><path d="M0 63C-9.6 59 -19.2 55 -29 50.2C-38.8 45.5 -48.9 40 -54.6 31.5C-60.3 23 -61.6 11.5 -63 0L0 0Z" fill="#08162a"></path></g><g transform="translate(0, 540)"><path d="M0 -189C33.4 -184.2 66.7 -179.5 94.5 -163.7C122.3 -147.9 144.5 -121.1 159.3 -92C174.2 -62.9 181.6 -31.4 189 0L0 0Z" fill="#bbbdc5"></path><path d="M0 -126C22.2 -122.8 44.5 -119.6 63 -109.1C81.5 -98.6 96.4 -80.7 106.2 -61.3C116.1 -41.9 121.1 -21 126 0L0 0Z" fill="#404759"></path><path d="M0 -63C11.1 -61.4 22.2 -59.8 31.5 -54.6C40.8 -49.3 48.2 -40.4 53.1 -30.7C58.1 -21 60.5 -10.5 63 0L0 0Z" fill="#08162a"></path></g></svg>