<svg id="visual" viewBox="0 0 900 600" width="900" height="600" xmlns="http://www.w3.org/2000/svg" xmlns:xlink="http://www.w3.org/1999/xlink" version="1.1"><rect x="0" y="0" width="900" height="600" fill="#f2f3f3"></rect><defs><linearGradient id="grad1_0" x1="33.3%" y1="0%" x2="100%" y2="100%"><stop offset="20%" stop-color="#08162a" stop-opacity="1"></stop><stop offset="80%" stop-color="#08162a" stop-opacity="1"></stop></linearGradient></defs><defs><linearGradient id="grad1_1" x1="33.3%" y1="0%" x2="100%" y2="100%"><stop offset="20%" stop-color="#08162a" stop-opacity="1"></stop><stop offset="80%" stop-color="#475966" stop-opacity="1"></stop></linearGradient></defs><defs><linearGradient id="grad1_2" x1="33.3%" y1="0%" x2="100%" y2="100%"><stop offset="20%" stop-color="#96a3a8" stop-opacity="1"></stop><stop offset="80%" stop-color="#475966" stop-opacity="1"></stop></linearGradient></defs><defs><linearGradient id="grad1_3" x1="33.3%" y1="0%" x2="100%" y2="100%"><stop offset="20%" stop-color="#96a3a8" stop-opacity="1"></stop><stop offset="80%" stop-color="#f2f3f3" stop-opacity="1"></stop></linearGradient></defs><defs><linearGradient id="grad2_0" x1="0%" y1="0%" x2="66.7%" y2="100%"><stop offset="20%" stop-color="#08162a" stop-opacity="1"></stop><stop offset="80%" stop-color="#08162a" stop-opacity="1"></stop></linearGradient></defs><defs><linearGradient id="grad2_1" x1="0%" y1="0%" x2="66.7%" y2="100%"><stop offset="20%" stop-color="#475966" stop-opacity="1"></stop><stop offset="80%" stop-color="#08162a" stop-opacity="1"></stop></linearGradient></defs><defs><linearGradient id="grad2_2" x1="0%" y1="0%" x2="66.7%" y2="100%"><stop offset="20%" stop-color="#475966" stop-opacity="1"></stop><stop offset="80%" stop-color="#96a3a8" stop-opacity="1"></stop></linearGradient></defs><defs><linearGradient id="grad2_3" x1="0%" y1="0%" x2="66.7%" y2="100%"><stop offset="20%" stop-color="#f2f3f3" stop-opacity="1"></stop><stop offset="80%" stop-color="#96a3a8" stop-opacity="1"></stop></linearGradient></defs><g transform="translate(900, 0)"><path d="M0 540.8C-63.7 474.1 -127.4 407.4 -214 370.7C-300.6 333.9 -410.1 327.2 -468.4 270.4C-526.7 213.6 -533.7 106.8 -540.8 0L0 0Z" fill="#c3cbcc"></path><path d="M0 405.6C-47.8 355.6 -95.6 305.5 -160.5 278C-225.4 250.4 -307.6 245.4 -351.3 202.8C-395 160.2 -400.3 80.1 -405.6 0L0 0Z" fill="#6d7d86"></path><path d="M0 270.4C-31.9 237.1 -63.7 203.7 -107 185.3C-150.3 167 -205 163.6 -234.2 135.2C-263.3 106.8 -266.9 53.4 -270.4 0L0 0Z" fill="#263647"></path><path d="M0 135.2C-15.9 118.5 -31.9 101.8 -53.5 92.7C-75.1 83.5 -102.5 81.8 -117.1 67.6C-131.7 53.4 -133.4 26.7 -135.2 0L0 0Z" fill="#08162a"></path></g><g transform="translate(0, 600)"><path d="M0 -540.8C63.4 -473.6 126.9 -406.5 213.5 -369.8C300.1 -333.1 410 -327 468.4 -270.4C526.8 -213.9 533.8 -106.9 540.8 0L0 0Z" fill="#c3cbcc"></path><path d="M0 -405.6C47.6 -355.2 95.2 -304.8 160.1 -277.3C225.1 -249.8 307.5 -245.2 351.3 -202.8C395.1 -160.4 400.4 -80.2 405.6 0L0 0Z" fill="#6d7d86"></path><path d="M0 -270.4C31.7 -236.8 63.4 -203.2 106.7 -184.9C150.1 -166.6 205 -163.5 234.2 -135.2C263.4 -106.9 266.9 -53.5 270.4 0L0 0Z" fill="#263647"></path><path d="M0 -135.2C15.9 -118.4 31.7 -101.6 53.4 -92.4C75 -83.3 102.5 -81.7 117.1 -67.6C131.7 -53.5 133.5 -26.7 135.2 0L0 0Z" fill="#08162a"></path></g></svg>