<svg id="visual" viewBox="0 0 960 540" width="960" height="540" xmlns="http://www.w3.org/2000/svg" xmlns:xlink="http://www.w3.org/1999/xlink" version="1.1"><rect x="0" y="0" width="960" height="540" fill="#fff"></rect><defs><linearGradient id="grad1_0" x1="43.8%" y1="0%" x2="100%" y2="100%"><stop offset="14.444444444444446%" stop-color="#08162a" stop-opacity="1"></stop><stop offset="85.55555555555554%" stop-color="#08162a" stop-opacity="1"></stop></linearGradient></defs><defs><linearGradient id="grad1_1" x1="43.8%" y1="0%" x2="100%" y2="100%"><stop offset="14.444444444444446%" stop-color="#08162a" stop-opacity="1"></stop><stop offset="85.55555555555554%" stop-color="#ffffff" stop-opacity="1"></stop></linearGradient></defs><defs><linearGradient id="grad2_0" x1="0%" y1="0%" x2="56.3%" y2="100%"><stop offset="14.444444444444446%" stop-color="#08162a" stop-opacity="1"></stop><stop offset="85.55555555555554%" stop-color="#08162a" stop-opacity="1"></stop></linearGradient></defs><defs><linearGradient id="grad2_1" x1="0%" y1="0%" x2="56.3%" y2="100%"><stop offset="14.444444444444446%" stop-color="#ffffff" stop-opacity="1"></stop><stop offset="85.55555555555554%" stop-color="#08162a" stop-opacity="1"></stop></linearGradient></defs><g transform="translate(960, 0)"><path d="M0 135C-20.7 126.7 -41.5 118.5 -62.5 108.3C-83.5 98 -104.8 85.9 -116.9 67.5C-129 49.1 -132 24.6 -135 0L0 0Z" fill="#7b808d"></path><path d="M0 67.5C-10.4 63.4 -20.7 59.2 -31.2 54.1C-41.8 49 -52.4 42.9 -58.5 33.8C-64.5 24.6 -66 12.3 -67.5 0L0 0Z" fill="#08162a"></path></g><g transform="translate(0, 540)"><path d="M0 -135C24.1 -131.8 48.2 -128.5 67.5 -116.9C86.8 -105.3 101.3 -85.4 111.7 -64.5C122.2 -43.6 128.6 -21.8 135 0L0 0Z" fill="#7b808d"></path><path d="M0 -67.5C12.1 -65.9 24.1 -64.3 33.7 -58.5C43.4 -52.7 50.6 -42.7 55.9 -32.3C61.1 -21.8 64.3 -10.9 67.5 0L0 0Z" fill="#08162a"></path></g></svg>