<svg id="visual" viewBox="0 0 960 540" width="960" height="540" xmlns="http://www.w3.org/2000/svg" xmlns:xlink="http://www.w3.org/1999/xlink" version="1.1"><rect x="0" y="0" width="960" height="540" fill="#fff"></rect><defs><linearGradient id="grad1_0" x1="43.8%" y1="0%" x2="100%" y2="100%"><stop offset="14.444444444444446%" stop-color="#08162a" stop-opacity="1"></stop><stop offset="85.55555555555554%" stop-color="#08162a" stop-opacity="1"></stop></linearGradient></defs><defs><linearGradient id="grad1_1" x1="43.8%" y1="0%" x2="100%" y2="100%"><stop offset="14.444444444444446%" stop-color="#08162a" stop-opacity="1"></stop><stop offset="85.55555555555554%" stop-color="#7b808d" stop-opacity="1"></stop></linearGradient></defs><defs><linearGradient id="grad1_2" x1="43.8%" y1="0%" x2="100%" y2="100%"><stop offset="14.444444444444446%" stop-color="#ffffff" stop-opacity="1"></stop><stop offset="85.55555555555554%" stop-color="#7b808d" stop-opacity="1"></stop></linearGradient></defs><defs><linearGradient id="grad2_0" x1="0%" y1="0%" x2="56.3%" y2="100%"><stop offset="14.444444444444446%" stop-color="#08162a" stop-opacity="1"></stop><stop offset="85.55555555555554%" stop-color="#08162a" stop-opacity="1"></stop></linearGradient></defs><defs><linearGradient id="grad2_1" x1="0%" y1="0%" x2="56.3%" y2="100%"><stop offset="14.444444444444446%" stop-color="#7b808d" stop-opacity="1"></stop><stop offset="85.55555555555554%" stop-color="#08162a" stop-opacity="1"></stop></linearGradient></defs><defs><linearGradient id="grad2_2" x1="0%" y1="0%" x2="56.3%" y2="100%"><stop offset="14.444444444444446%" stop-color="#7b808d" stop-opacity="1"></stop><stop offset="85.55555555555554%" stop-color="#ffffff" stop-opacity="1"></stop></linearGradient></defs><g transform="translate(960, 0)"><path d="M0 135C-23.9 131.6 -47.7 128.2 -67.5 116.9C-87.3 105.6 -102.9 86.3 -113.4 65.5C-124 44.7 -129.5 22.3 -135 0L0 0Z" fill="#bbbdc5"></path><path d="M0 90C-15.9 87.7 -31.8 85.5 -45 77.9C-58.2 70.4 -68.6 57.5 -75.6 43.7C-82.7 29.8 -86.3 14.9 -90 0L0 0Z" fill="#404759"></path><path d="M0 45C-8 43.9 -15.9 42.7 -22.5 39C-29.1 35.2 -34.3 28.8 -37.8 21.8C-41.3 14.9 -43.2 7.4 -45 0L0 0Z" fill="#08162a"></path></g><g transform="translate(0, 540)"><path d="M0 -135C26.1 -132.9 52.1 -130.8 67.5 -116.9C82.9 -103.1 87.5 -77.4 97 -56C106.5 -34.6 120.7 -17.3 135 0L0 0Z" fill="#bbbdc5"></path><path d="M0 -90C17.4 -88.6 34.8 -87.2 45 -77.9C55.2 -68.7 58.4 -51.6 64.7 -37.3C71 -23 80.5 -11.5 90 0L0 0Z" fill="#404759"></path><path d="M0 -45C8.7 -44.3 17.4 -43.6 22.5 -39C27.6 -34.4 29.2 -25.8 32.3 -18.7C35.5 -11.5 40.2 -5.8 45 0L0 0Z" fill="#08162a"></path></g></svg>