<svg id="visual" viewBox="0 0 900 600" width="900" height="600" xmlns="http://www.w3.org/2000/svg" xmlns:xlink="http://www.w3.org/1999/xlink" version="1.1"><rect x="0" y="0" width="900" height="600" fill="#f2f3f3"></rect><defs><linearGradient id="grad1_0" x1="33.3%" y1="100%" x2="100%" y2="0%"><stop offset="20%" stop-color="#08162a" stop-opacity="1"></stop><stop offset="80%" stop-color="#08162a" stop-opacity="1"></stop></linearGradient></defs><defs><linearGradient id="grad1_1" x1="33.3%" y1="100%" x2="100%" y2="0%"><stop offset="20%" stop-color="#08162a" stop-opacity="1"></stop><stop offset="80%" stop-color="#475966" stop-opacity="1"></stop></linearGradient></defs><defs><linearGradient id="grad1_2" x1="33.3%" y1="100%" x2="100%" y2="0%"><stop offset="20%" stop-color="#96a3a8" stop-opacity="1"></stop><stop offset="80%" stop-color="#475966" stop-opacity="1"></stop></linearGradient></defs><defs><linearGradient id="grad1_3" x1="33.3%" y1="100%" x2="100%" y2="0%"><stop offset="20%" stop-color="#96a3a8" stop-opacity="1"></stop><stop offset="80%" stop-color="#f2f3f3" stop-opacity="1"></stop></linearGradient></defs><defs><linearGradient id="grad2_0" x1="0%" y1="100%" x2="66.7%" y2="0%"><stop offset="20%" stop-color="#08162a" stop-opacity="1"></stop><stop offset="80%" stop-color="#08162a" stop-opacity="1"></stop></linearGradient></defs><defs><linearGradient id="grad2_1" x1="0%" y1="100%" x2="66.7%" y2="0%"><stop offset="20%" stop-color="#475966" stop-opacity="1"></stop><stop offset="80%" stop-color="#08162a" stop-opacity="1"></stop></linearGradient></defs><defs><linearGradient id="grad2_2" x1="0%" y1="100%" x2="66.7%" y2="0%"><stop offset="20%" stop-color="#475966" stop-opacity="1"></stop><stop offset="80%" stop-color="#96a3a8" stop-opacity="1"></stop></linearGradient></defs><defs><linearGradient id="grad2_3" x1="0%" y1="100%" x2="66.7%" y2="0%"><stop offset="20%" stop-color="#f2f3f3" stop-opacity="1"></stop><stop offset="80%" stop-color="#96a3a8" stop-opacity="1"></stop></linearGradient></defs><g transform="translate(900, 600)"><path d="M-540.8 0C-474.1 -63.7 -407.4 -127.4 -370.7 -214C-333.9 -300.6 -327.2 -410.1 -270.4 -468.4C-213.6 -526.7 -106.8 -533.7 0 -540.8L0 0Z" fill="#c3cbcc"></path><path d="M-405.6 0C-355.6 -47.8 -305.5 -95.6 -278 -160.5C-250.4 -225.4 -245.4 -307.6 -202.8 -351.3C-160.2 -395 -80.1 -400.3 0 -405.6L0 0Z" fill="#6d7d86"></path><path d="M-270.4 0C-237.1 -31.9 -203.7 -63.7 -185.3 -107C-167 -150.3 -163.6 -205 -135.2 -234.2C-106.8 -263.3 -53.4 -266.9 0 -270.4L0 0Z" fill="#263647"></path><path d="M-135.2 0C-118.5 -15.9 -101.8 -31.9 -92.7 -53.5C-83.5 -75.1 -81.8 -102.5 -67.6 -117.1C-53.4 -131.7 -26.7 -133.4 0 -135.2L0 0Z" fill="#08162a"></path></g><g transform="translate(0, 0)"><path d="M540.8 0C473.6 63.4 406.5 126.9 369.8 213.5C333.1 300.1 327 410 270.4 468.4C213.9 526.8 106.9 533.8 0 540.8L0 0Z" fill="#c3cbcc"></path><path d="M405.6 0C355.2 47.6 304.8 95.2 277.3 160.1C249.8 225.1 245.2 307.5 202.8 351.3C160.4 395.1 80.2 400.4 0 405.6L0 0Z" fill="#6d7d86"></path><path d="M270.4 0C236.8 31.7 203.2 63.4 184.9 106.7C166.6 150.1 163.5 205 135.2 234.2C106.9 263.4 53.5 266.9 0 270.4L0 0Z" fill="#263647"></path><path d="M135.2 0C118.4 15.9 101.6 31.7 92.4 53.4C83.3 75 81.7 102.5 67.6 117.1C53.5 131.7 26.7 133.5 0 135.2L0 0Z" fill="#08162a"></path></g></svg>