<svg id="visual" viewBox="0 0 960 540" width="960" height="540" xmlns="http://www.w3.org/2000/svg" xmlns:xlink="http://www.w3.org/1999/xlink" version="1.1"><g stroke-width="1" stroke-linejoin="bevel"><path d="M411.7 270L450.7 183L358 251Z" fill="#246688" stroke="#246688"></path><path d="M450.7 183L315 176L358 251Z" fill="#205a7a" stroke="#205a7a"></path><path d="M450.7 183L325 101L315 176Z" fill="#15384f" stroke="#15384f"></path><path d="M315 334L437.7 356L411.7 270Z" fill="#112e42" stroke="#112e42"></path><path d="M569.3 268L550.3 188L450.7 183Z" fill="#15384f" stroke="#15384f"></path><path d="M218.3 272L315 334L358 251Z" fill="#0c2435" stroke="#0c2435"></path><path d="M358 251L315 334L411.7 270Z" fill="#277297" stroke="#277297"></path><path d="M569.3 268L450.7 183L411.7 270Z" fill="#277297" stroke="#277297"></path><path d="M450.7 183L435.7 57L325 101Z" fill="#081a28" stroke="#081a28"></path><path d="M559.3 61L435.7 57L450.7 183Z" fill="#00101c" stroke="#00101c"></path><path d="M437.7 356L569.3 268L411.7 270Z" fill="#0c2435" stroke="#0c2435"></path><path d="M175.3 106L221.3 205L315 176Z" fill="#246688" stroke="#246688"></path><path d="M315 176L218.3 272L358 251Z" fill="#277297" stroke="#277297"></path><path d="M221.3 205L218.3 272L315 176Z" fill="#081a28" stroke="#081a28"></path><path d="M437.7 356L539.3 370L569.3 268Z" fill="#081a28" stroke="#081a28"></path><path d="M503.3 0L446.7 0L435.7 57Z" fill="#246688" stroke="#246688"></path><path d="M435.7 57L307 0L325 101Z" fill="#19435d" stroke="#19435d"></path><path d="M648 155L559.3 61L550.3 188Z" fill="#112e42" stroke="#112e42"></path><path d="M550.3 188L559.3 61L450.7 183Z" fill="#081a28" stroke="#081a28"></path><path d="M245.3 424L313 429L315 334Z" fill="#246688" stroke="#246688"></path><path d="M315 334L313 429L437.7 356Z" fill="#277297" stroke="#277297"></path><path d="M437.7 356L520.3 457L539.3 370Z" fill="#277297" stroke="#277297"></path><path d="M446.7 0L307 0L435.7 57Z" fill="#112e42" stroke="#112e42"></path><path d="M325 101L175.3 106L315 176Z" fill="#081a28" stroke="#081a28"></path><path d="M559.3 61L503.3 0L435.7 57Z" fill="#081a28" stroke="#081a28"></path><path d="M307 0L175.3 106L325 101Z" fill="#1d4e6b" stroke="#1d4e6b"></path><path d="M221.3 205L111.7 309L218.3 272Z" fill="#246688" stroke="#246688"></path><path d="M616 363L653 240L569.3 268Z" fill="#15384f" stroke="#15384f"></path><path d="M569.3 268L653 240L550.3 188Z" fill="#205a7a" stroke="#205a7a"></path><path d="M653 240L648 155L550.3 188Z" fill="#00101c" stroke="#00101c"></path><path d="M559.3 61L642 0L503.3 0Z" fill="#15384f" stroke="#15384f"></path><path d="M520.3 457L616 363L539.3 370Z" fill="#0c2435" stroke="#0c2435"></path><path d="M539.3 370L616 363L569.3 268Z" fill="#1d4e6b" stroke="#1d4e6b"></path><path d="M174.3 363L245.3 424L315 334Z" fill="#277297" stroke="#277297"></path><path d="M174.3 363L315 334L218.3 272Z" fill="#205a7a" stroke="#205a7a"></path><path d="M306 540L410.7 482L313 429Z" fill="#081a28" stroke="#081a28"></path><path d="M313 429L410.7 482L437.7 356Z" fill="#112e42" stroke="#112e42"></path><path d="M410.7 482L520.3 457L437.7 356Z" fill="#19435d" stroke="#19435d"></path><path d="M111.7 309L174.3 363L218.3 272Z" fill="#112e42" stroke="#112e42"></path><path d="M752.7 92L645 76L648 155Z" fill="#246688" stroke="#246688"></path><path d="M648 155L645 76L559.3 61Z" fill="#00101c" stroke="#00101c"></path><path d="M69.7 168L111.7 309L221.3 205Z" fill="#0c2435" stroke="#0c2435"></path><path d="M307 0L181.3 0L175.3 106Z" fill="#277297" stroke="#277297"></path><path d="M175.3 106L69.7 168L221.3 205Z" fill="#15384f" stroke="#15384f"></path><path d="M97.7 0L102.7 107L175.3 106Z" fill="#112e42" stroke="#112e42"></path><path d="M753.7 294L719.7 202L653 240Z" fill="#246688" stroke="#246688"></path><path d="M653 240L719.7 202L648 155Z" fill="#112e42" stroke="#112e42"></path><path d="M743.7 0L642 0L645 76Z" fill="#00101c" stroke="#00101c"></path><path d="M645 76L642 0L559.3 61Z" fill="#19435d" stroke="#19435d"></path><path d="M306 540L460.7 540L410.7 482Z" fill="#19435d" stroke="#19435d"></path><path d="M410.7 482L460.7 540L520.3 457Z" fill="#00101c" stroke="#00101c"></path><path d="M673 477L741.7 347L616 363Z" fill="#297ea6" stroke="#297ea6"></path><path d="M102.7 107L69.7 168L175.3 106Z" fill="#15384f" stroke="#15384f"></path><path d="M460.7 540L494.3 540L520.3 457Z" fill="#205a7a" stroke="#205a7a"></path><path d="M200.3 540L306 540L245.3 424Z" fill="#112e42" stroke="#112e42"></path><path d="M245.3 424L306 540L313 429Z" fill="#00101c" stroke="#00101c"></path><path d="M110.7 415L245.3 424L174.3 363Z" fill="#246688" stroke="#246688"></path><path d="M72.7 349L174.3 363L111.7 309Z" fill="#277297" stroke="#277297"></path><path d="M72.7 349L110.7 415L174.3 363Z" fill="#246688" stroke="#246688"></path><path d="M0 230L72.7 349L111.7 309Z" fill="#297ea6" stroke="#297ea6"></path><path d="M741.7 347L753.7 294L653 240Z" fill="#297ea6" stroke="#297ea6"></path><path d="M741.7 347L653 240L616 363Z" fill="#205a7a" stroke="#205a7a"></path><path d="M673 477L616 363L520.3 457Z" fill="#112e42" stroke="#112e42"></path><path d="M102.7 107L0 72L69.7 168Z" fill="#277297" stroke="#277297"></path><path d="M181.3 0L97.7 0L175.3 106Z" fill="#1d4e6b" stroke="#1d4e6b"></path><path d="M719.7 202L752.7 92L648 155Z" fill="#297ea6" stroke="#297ea6"></path><path d="M891.3 179L752.7 92L719.7 202Z" fill="#0c2435" stroke="#0c2435"></path><path d="M648 540L673 477L520.3 457Z" fill="#15384f" stroke="#15384f"></path><path d="M110.7 415L200.3 540L245.3 424Z" fill="#15384f" stroke="#15384f"></path><path d="M0 72L0 219L69.7 168Z" fill="#081a28" stroke="#081a28"></path><path d="M69.7 168L0 230L111.7 309Z" fill="#112e42" stroke="#112e42"></path><path d="M0 219L0 230L69.7 168Z" fill="#112e42" stroke="#112e42"></path><path d="M0 462L145.7 540L110.7 415Z" fill="#19435d" stroke="#19435d"></path><path d="M752.7 92L743.7 0L645 76Z" fill="#297ea6" stroke="#297ea6"></path><path d="M494.3 540L648 540L520.3 457Z" fill="#19435d" stroke="#19435d"></path><path d="M673 477L784.7 468L741.7 347Z" fill="#246688" stroke="#246688"></path><path d="M110.7 415L145.7 540L200.3 540Z" fill="#277297" stroke="#277297"></path><path d="M0 398L110.7 415L72.7 349Z" fill="#205a7a" stroke="#205a7a"></path><path d="M97.7 0L0 72L102.7 107Z" fill="#205a7a" stroke="#205a7a"></path><path d="M0 230L0 398L72.7 349Z" fill="#246688" stroke="#246688"></path><path d="M97.7 0L0 0L0 72Z" fill="#112e42" stroke="#112e42"></path><path d="M785.7 540L784.7 468L673 477Z" fill="#1d4e6b" stroke="#1d4e6b"></path><path d="M878.3 335L892.3 242L753.7 294Z" fill="#277297" stroke="#277297"></path><path d="M877.3 60L840.3 0L752.7 92Z" fill="#19435d" stroke="#19435d"></path><path d="M0 398L0 462L110.7 415Z" fill="#277297" stroke="#277297"></path><path d="M891.3 179L719.7 202L892.3 242Z" fill="#1d4e6b" stroke="#1d4e6b"></path><path d="M752.7 92L840.3 0L743.7 0Z" fill="#00101c" stroke="#00101c"></path><path d="M892.3 242L719.7 202L753.7 294Z" fill="#112e42" stroke="#112e42"></path><path d="M878.3 335L753.7 294L741.7 347Z" fill="#00101c" stroke="#00101c"></path><path d="M784.7 468L878.3 335L741.7 347Z" fill="#112e42" stroke="#112e42"></path><path d="M891.3 179L877.3 60L752.7 92Z" fill="#00101c" stroke="#00101c"></path><path d="M648 540L785.7 540L673 477Z" fill="#0c2435" stroke="#0c2435"></path><path d="M784.7 468L836.3 482L878.3 335Z" fill="#0c2435" stroke="#0c2435"></path><path d="M819.3 540L836.3 482L784.7 468Z" fill="#297ea6" stroke="#297ea6"></path><path d="M0 462L0 540L145.7 540Z" fill="#081a28" stroke="#081a28"></path><path d="M785.7 540L819.3 540L784.7 468Z" fill="#15384f" stroke="#15384f"></path><path d="M892.3 242L960 192L891.3 179Z" fill="#205a7a" stroke="#205a7a"></path><path d="M891.3 179L960 71L877.3 60Z" fill="#246688" stroke="#246688"></path><path d="M877.3 60L960 0L840.3 0Z" fill="#277297" stroke="#277297"></path><path d="M960 247L960 192L892.3 242Z" fill="#277297" stroke="#277297"></path><path d="M960 247L892.3 242L878.3 335Z" fill="#0c2435" stroke="#0c2435"></path><path d="M960 247L878.3 335L960 383Z" fill="#15384f" stroke="#15384f"></path><path d="M960 383L878.3 335L836.3 482Z" fill="#1d4e6b" stroke="#1d4e6b"></path><path d="M960 192L960 71L891.3 179Z" fill="#081a28" stroke="#081a28"></path><path d="M960 473L960 383L836.3 482Z" fill="#112e42" stroke="#112e42"></path><path d="M960 71L960 0L877.3 60Z" fill="#205a7a" stroke="#205a7a"></path><path d="M960 540L960 473L836.3 482Z" fill="#246688" stroke="#246688"></path><path d="M819.3 540L960 540L836.3 482Z" fill="#00101c" stroke="#00101c"></path></g></svg>