<svg id="visual" viewBox="0 0 960 540" width="960" height="540" xmlns="http://www.w3.org/2000/svg" xmlns:xlink="http://www.w3.org/1999/xlink" version="1.1"><path d="M0 66L40 59.7C80 53.3 160 40.7 240 50.5C320 60.3 400 92.7 480 104.3C560 116 640 107 720 96.2C800 85.3 880 72.7 920 66.3L960 60L960 0L920 0C880 0 800 0 720 0C640 0 560 0 480 0C400 0 320 0 240 0C160 0 80 0 40 0L0 0Z" fill="#6198ff"></path><path d="M0 190L40 181.8C80 173.7 160 157.3 240 187C320 216.7 400 292.3 480 311.3C560 330.3 640 292.7 720 248.7C800 204.7 880 154.3 920 129.2L960 104L960 58L920 64.3C880 70.7 800 83.3 720 94.2C640 105 560 114 480 102.3C400 90.7 320 58.3 240 48.5C160 38.7 80 51.3 40 57.7L0 64Z" fill="#4988ff"></path><path d="M0 212L40 207.5C80 203 160 194 240 221C320 248 400 311 480 325.3C560 339.7 640 305.3 720 273.8C800 242.3 880 213.7 920 199.3L960 185L960 102L920 127.2C880 152.3 800 202.7 720 246.7C640 290.7 560 328.3 480 309.3C400 290.3 320 214.7 240 185C160 155.3 80 171.7 40 179.8L0 188Z" fill="#2d77ff"></path><path d="M0 244L40 236.8C80 229.7 160 215.3 240 242.3C320 269.3 400 337.7 480 361C560 384.3 640 362.7 720 340.2C800 317.7 880 294.3 920 282.7L960 271L960 183L920 197.3C880 211.7 800 240.3 720 271.8C640 303.3 560 337.7 480 323.3C400 309 320 246 240 219C160 192 80 201 40 205.5L0 210Z" fill="#0066ff"></path><path d="M0 260L40 253.7C80 247.3 160 234.7 240 272.5C320 310.3 400 398.7 480 428.5C560 458.3 640 429.7 720 393.7C800 357.7 880 314.3 920 292.7L960 271L960 269L920 280.7C880 292.3 800 315.7 720 338.2C640 360.7 560 382.3 480 359C400 335.7 320 267.3 240 240.3C160 213.3 80 227.7 40 234.8L0 242Z" fill="#005de8"></path><path d="M0 509L40 505.3C80 501.7 160 494.3 240 498.8C320 503.3 400 519.7 480 524.2C560 528.7 640 521.3 720 522.2C800 523 880 532 920 536.5L960 541L960 269L920 290.7C880 312.3 800 355.7 720 391.7C640 427.7 560 456.3 480 426.5C400 396.7 320 308.3 240 270.5C160 232.7 80 245.3 40 251.7L0 258Z" fill="#0055d1"></path><path d="M0 541L40 541C80 541 160 541 240 541C320 541 400 541 480 541C560 541 640 541 720 541C800 541 880 541 920 541L960 541L960 539L920 534.5C880 530 800 521 720 520.2C640 519.3 560 526.7 480 522.2C400 517.7 320 501.3 240 496.8C160 492.3 80 499.7 40 503.3L0 507Z" fill="#004cbb"></path></svg>